<?xml version="1.0" encoding="UTF-8"?>
<svg id="Layer_2" data-name="Layer 2" xmlns="http://www.w3.org/2000/svg" viewBox="0 0 150 150">
  <g id="Dimensions">
    <g>
      <rect width="150" height="150" style="fill: #273349; stroke-width: 0px;"/>
      <g>
        <g>
          <path d="M81.56,85.36l-18.37,18.37-35.43-34.92v33.61c0,7.79,5.01,13.12,12.54,13.12l70.9.33c7.53,0,11.03-3.84,11.03-11.63v-23.62l-23.62,23.11-17.06-18.37Z" style="fill: #5afbc4; stroke-width: 0px;"/>
          <polygon points="122.24 49.93 98.62 74.86 81.56 56.49 63.19 74.86 27.76 32.87 51.45 32.87 63.19 47.3 82.25 32.87 98.62 44.68 110.84 32.87 122.24 32.87 122.24 49.93" style="fill: #5afbc4; stroke-width: 0px;"/>
        </g>
        <path d="M27.76,32.87h94.48v72.17c0,5.79-4.7,10.5-10.5,10.5H38.26c-5.79,0-10.5-4.7-10.5-10.5V32.87h0Z" style="fill: none; stroke-width: 0px;"/>
      </g>
    </g>
  </g>
</svg>