<?xml version="1.0" encoding="UTF-8"?>
<svg id="Layer_2" data-name="Layer 2" xmlns="http://www.w3.org/2000/svg" viewBox="0 0 225 72.01">
  <g id="Dimensions">
    <g>
      <g>
        <path d="M225,26.99v-9h-10.91V.02h-12.41v17.97h-18.27v-2.92c0-3.26,1.32-4.66,5.19-4.66h5.72V.02h-7.74c-9.33,0-15.58,3.96-15.58,15.14v2.83h-9v9h9v45h12.41V26.99h18.27v29.86c0,11.18,6.25,15.14,15.58,15.14h7.74v-10.38h-5.72c-3.87,0-5.19-1.41-5.19-4.66v-29.95h10.91Z" style="fill: #273349; stroke-width: 0px;"/>
        <polygon points="55.12 23.25 36.46 40.72 0 0 0 36 36.46 72.01 55.12 54.55 74.03 72.01 99 49.3 99 18 73.87 40.69 55.12 23.25" style="fill: #273349; stroke-width: 0px;"/>
        <path d="M132.53,18.01c-16.54,0-28.04,10.48-28.04,27s11.8,27,28.04,27c13.82,0,23.1-7.65,26.13-17.28h-15.23c-1.82,3.49-5.15,6.33-11.2,6.33-7.06,0-12.71-4.34-13.42-12.08h40.85c.3-1.7.4-3.4.4-5.1,0-15.58-11.4-25.87-27.54-25.87ZM118.91,40.11c1.11-7.18,6.46-11.23,13.21-11.23,7.26,0,13.11,4.34,13.32,11.23h-26.53Z" style="fill: #273349; stroke-width: 0px;"/>
      </g>
      <rect width="225" height="72" style="fill: none; stroke-width: 0px;"/>
    </g>
  </g>
</svg>